<?xml version="1.0" encoding="UTF-8"?><svg id="Layer_2" xmlns="http://www.w3.org/2000/svg" viewBox="0 0 252.7 227.4"><defs><style>.cls-1{fill:#e2334b;stroke-width:0px;}</style></defs><g id="Layer_2-2"><g id="Layer_1-2"><path class="cls-1" d="M0,0h252.7v227.4H0V0ZM7.1,220.2h238.4V7.2H7.1v212.9h0Z"/><path class="cls-1" d="M39.1,199.8h-6.6v-51.2h13.4c8.8,0,17.4-1,25.7-4.4,13.8-5.6,22.4-16.3,26.7-30,5.2-16.7,5.2-33.7-1.3-50.2-6.9-17.8-20.3-28-39.4-30.2-6.8-.8-13.7-.6-20.6-.8h-4.7v-6.3c14.8-.4,29.3-1.2,43,5,19.4,8.9,29.5,24.8,32.7,45.2,2.4,15.1,1.7,30.1-4.5,44.4-8.3,18.9-22.8,30.1-43.5,32.9-5.5.7-11.2.9-16.8.9s-4.1,1.1-4,4.2c.1,12,0,23.9,0,35.9s-.1,2.9-.2,4.6h.1Z"/><path class="cls-1" d="M215.9,30.6h6.1v169c-.4.2-.7.3-1.1.5-7.9-15.1-15.9-30.2-23.8-45.4,5.4-1.8,6.8-1.3,9,3.1,2.6,5.4,5.1,10.8,7.6,16.2.5,1.1,1,2.1,2.2,3V30.6h0Z"/><path class="cls-1" d="M139.7,26.7c8,15.1,15.9,30.3,23.9,45.5-6.6,1.4-6.8,1.3-9.5-4.1-3-6.1-5.9-12.3-9.4-19.4v147.8h-6V27.1c.3,0,.7-.3,1-.4Z"/></g></g></svg>