<?xml version="1.0" encoding="UTF-8"?><svg id="Layer_2" xmlns="http://www.w3.org/2000/svg" viewBox="0 0 398.4 237.7"><defs><style>.cls-1{fill:#000;stroke-width:0px;}</style></defs><g id="Layer_1-2"><path class="cls-1" d="M285.2,1c27.9,0,52.6,4.4,71.4,12.7,19.3,8.5,32.4,21.1,37.8,36.6,4.5,12.8,3.8,27.1-2.2,42.4-5.8,14.9-16.2,30.1-31,45.2-30.5,31.2-76.1,58.5-128.4,76.9-41,14.4-82.4,22-119.7,22s-52.6-4.4-71.5-12.7c-19.3-8.5-32.4-21.1-37.8-36.6-4.5-12.8-3.8-27.1,2.2-42.4,5.8-14.9,16.2-30.1,31-45.2,30.5-31.2,76.1-58.5,128.4-76.9C206.5,8.6,247.9,1,285.2,1h0M285.2,0c-36,0-77.6,7.2-120,22.1C56.8,60.1-15.8,134.4,3,187.8c11.4,32.5,54.1,49.9,110.2,49.9s77.6-7.2,120-22.1c108.4-38.1,181-112.3,162.2-165.7C384,17.3,341.3,0,285.2,0h0Z"/></g></svg>